<?xml version="1.0" standalone="no"?>
<!DOCTYPE svg PUBLIC "-//W3C//DTD SVG 20010904//EN"
 "http://www.w3.org/TR/2001/REC-SVG-20010904/DTD/svg10.dtd">
<svg version="1.0" xmlns="http://www.w3.org/2000/svg"
 width="700.000000pt" height="700.000000pt" viewBox="0 0 700.000000 700.000000"
 preserveAspectRatio="xMidYMid meet">
<metadata>
Created by potrace 1.11, written by Peter Selinger 2001-2013
</metadata>
<g transform="translate(0.000000,700.000000) scale(0.100000,-0.100000)"
fill="#000000" stroke="none">
<path d="M0 3500 l0 -3500 3500 0 3500 0 0 3500 0 3500 -3500 0 -3500 0 0
-3500z m5218 807 l2 -419 39 49 c114 144 296 244 502 274 101 15 303 6 384
-16 236 -64 401 -237 467 -487 21 -80 22 -105 25 -635 l4 -553 -225 0 -226 0
0 473 c0 485 -5 555 -41 653 -28 73 -100 145 -176 175 -78 30 -248 38 -345 15
-142 -33 -279 -128 -364 -252 l-39 -56 -5 -502 -5 -501 -227 -3 -228 -2 0
1098 c0 604 3 1102 7 1106 4 3 106 5 227 4 l221 -3 3 -418z m-3441 -125 c265
-90 416 -288 453 -592 5 -47 10 -304 10 -577 l0 -493 -227 2 -228 3 -5 530 -5
530 -27 58 c-49 105 -104 155 -207 187 -79 25 -235 27 -325 4 -142 -36 -280
-137 -365 -267 l-41 -63 0 -492 0 -492 -225 0 -225 0 0 820 0 820 225 0 225 0
1 -142 c0 -136 1 -142 16 -118 9 14 51 59 93 101 63 64 94 85 182 129 149 72
240 91 433 87 137 -3 158 -6 242 -35z m2018 4 c248 -65 417 -192 510 -381 67
-135 68 -144 76 -640 7 -467 11 -512 55 -597 8 -15 14 -32 14 -38 0 -7 -76
-10 -229 -10 l-229 0 -22 53 c-13 28 -25 71 -28 95 -2 23 -6 42 -9 42 -2 0
-22 -16 -43 -36 -87 -81 -204 -140 -355 -180 -88 -24 -120 -27 -260 -28 -177
0 -270 14 -408 64 -105 39 -182 88 -250 159 -197 206 -175 548 47 723 155 123
401 188 664 175 230 -11 405 -74 554 -199 l50 -42 -4 115 c-3 99 -7 122 -32
176 -65 143 -196 213 -435 233 -247 20 -492 -26 -682 -127 -4 -2 -37 65 -73
148 -53 118 -64 154 -54 160 35 23 224 90 318 113 191 47 268 55 505 52 201
-3 229 -5 320 -30z"/>
<path d="M3235 3280 c-126 -20 -225 -65 -270 -124 -35 -46 -51 -128 -36 -184
14 -50 70 -116 120 -142 189 -96 552 -82 739 27 25 15 69 51 99 80 45 45 53
59 53 90 0 32 -8 45 -62 98 -110 106 -246 153 -458 160 -69 2 -152 0 -185 -5z"/>
</g>
</svg>
